<svg xmlns="http://www.w3.org/2000/svg" version="1.1" xmlns:xlink="http://www.w3.org/1999/xlink" xmlns:svgjs="http://svgjs.dev/svgjs" width="1500" height="1518" viewBox="0 0 1500 1518"><g transform="matrix(1,0,0,1,-1.7407346938775845,-2.4483870967742405)"><svg viewBox="0 0 245 248" data-background-color="#1b1b1f" preserveAspectRatio="xMidYMid meet" height="1518" width="1500" xmlns="http://www.w3.org/2000/svg" xmlns:xlink="http://www.w3.org/1999/xlink"><g id="tight-bounds" transform="matrix(1,0,0,1,0.2843200000000081,0.4000000000000057)"><svg viewBox="0 0 244.43135999999998 247.2" height="247.2" width="244.43135999999998"><g><svg></svg></g><g><svg viewBox="0 0 244.43135999999998 247.2" height="247.2" width="244.43135999999998"><g transform="matrix(1,0,0,1,0,70.49034776058777)"><svg viewBox="0 0 244.43135999999998 106.21930447882445" height="106.21930447882445" width="244.43135999999998"><g><svg viewBox="0 0 244.43135999999998 106.21930447882445" height="106.21930447882445" width="244.43135999999998"><g transform="matrix(1,0,0,1,0,64.54794135935042)"><svg viewBox="0 0 244.43135999999998 41.67136311947404" height="41.67136311947404" width="244.43135999999998"><g id="textblocktransform"><svg viewBox="0 0 244.43135999999998 41.67136311947404" height="41.67136311947404" width="244.43135999999998" id="textblock"><g><svg viewBox="0 0 244.43135999999998 41.67136311947404" height="41.67136311947404" width="244.43135999999998"><g transform="matrix(1,0,0,1,0,0)"><svg width="244.43135999999998" viewBox="4.95 -37.35 220.53 37.6" height="41.67136311947404" data-palette-color="#ffffff"><path d="M13.05-34.35Q10.75-34.35 9.58-33.1 8.4-31.85 8.4-29.4L8.4-29.4 8.4-26.3 16.5-26.3 16.5-23.3 8.5-23.3 8.5 0 4.95 0 4.95-29.55Q4.95-33.15 7.03-35.25 9.1-37.35 12.9-37.35L12.9-37.35Q14.4-37.35 15.8-36.93 17.2-36.5 18.15-35.7L18.15-35.7 16.95-33.05Q15.4-34.35 13.05-34.35L13.05-34.35ZM28.7-21.15Q29.95-23.8 32.42-25.15 34.9-26.5 38.55-26.5L38.55-26.5 38.55-23.05 37.7-23.1Q33.55-23.1 31.2-20.55 28.85-18 28.85-13.4L28.85-13.4 28.85 0 25.3 0 25.3-26.3 28.7-26.3 28.7-21.15ZM55.95-2.9Q58.4-2.9 60.47-3.78 62.55-4.65 64-6.35L64-6.35 66-4.05Q64.25-1.95 61.65-0.85 59.05 0.25 55.9 0.25L55.9 0.25Q51.85 0.25 48.7-1.48 45.55-3.2 43.8-6.25 42.05-9.3 42.05-13.15L42.05-13.15Q42.05-17 43.72-20.05 45.4-23.1 48.35-24.8 51.3-26.5 55.05-26.5L55.05-26.5Q58.55-26.5 61.37-24.9 64.2-23.3 65.87-20.45 67.55-17.6 67.65-13.95L67.65-13.95 46.05-9.75Q47.05-6.55 49.67-4.73 52.3-2.9 55.95-2.9L55.95-2.9ZM55.05-23.45Q52.3-23.45 50.12-22.18 47.95-20.9 46.72-18.63 45.5-16.35 45.5-13.4L45.5-13.4Q45.5-12.65 45.55-12.3L45.55-12.3 64.09-15.9Q63.5-19.2 61.05-21.33 58.6-23.45 55.05-23.45L55.05-23.45ZM86.14-2.9Q88.59-2.9 90.67-3.78 92.74-4.65 94.19-6.35L94.19-6.35 96.19-4.05Q94.44-1.95 91.84-0.85 89.24 0.25 86.09 0.25L86.09 0.25Q82.04 0.25 78.89-1.48 75.74-3.2 73.99-6.25 72.24-9.3 72.24-13.15L72.24-13.15Q72.24-17 73.92-20.05 75.59-23.1 78.54-24.8 81.49-26.5 85.24-26.5L85.24-26.5Q88.74-26.5 91.57-24.9 94.39-23.3 96.07-20.45 97.74-17.6 97.84-13.95L97.84-13.95 76.24-9.75Q77.24-6.55 79.87-4.73 82.49-2.9 86.14-2.9L86.14-2.9ZM85.24-23.45Q82.49-23.45 80.32-22.18 78.14-20.9 76.92-18.63 75.69-16.35 75.69-13.4L75.69-13.4Q75.69-12.65 75.74-12.3L75.74-12.3 94.29-15.9Q93.69-19.2 91.24-21.33 88.79-23.45 85.24-23.45L85.24-23.45ZM137.89-26.5Q142.84-26.5 145.67-23.65 148.49-20.8 148.49-15.25L148.49-15.25 148.49 0 144.94 0 144.94-14.9Q144.94-19 142.97-21.15 140.99-23.3 137.39-23.3L137.39-23.3Q133.29-23.3 130.94-20.78 128.59-18.25 128.59-13.8L128.59-13.8 128.59 0 125.04 0 125.04-14.9Q125.04-19 123.07-21.15 121.09-23.3 117.44-23.3L117.44-23.3Q113.39-23.3 111.02-20.78 108.64-18.25 108.64-13.8L108.64-13.8 108.64 0 105.09 0 105.09-26.3 108.49-26.3 108.49-21.5Q109.89-23.9 112.39-25.2 114.89-26.5 118.14-26.5L118.14-26.5Q121.44-26.5 123.87-25.1 126.29-23.7 127.49-20.95L127.49-20.95Q128.94-23.55 131.67-25.03 134.39-26.5 137.89-26.5L137.89-26.5ZM178.49 0L167.89-13.2 161.69-7.5 161.69 0 158.14 0 158.14-37.1 161.69-37.1 161.69-11.95 177.39-26.3 181.79-26.3 170.54-15.55 182.84 0 178.49 0ZM199.89-4.15L201.14-1.6Q200.14-0.7 198.69-0.23 197.24 0.25 195.64 0.25L195.64 0.25Q191.94 0.25 189.94-1.75 187.94-3.75 187.94-7.4L187.94-7.4 187.94-32.05 191.49-32.05 191.49-26.3 199.44-26.3 199.44-23.3 191.49-23.3 191.49-7.6Q191.49-5.25 192.64-4.03 193.79-2.8 195.99-2.8L195.99-2.8Q198.39-2.8 199.89-4.15L199.89-4.15ZM214.63 0.25Q211.43 0.25 208.51-0.68 205.58-1.6 203.93-3L203.93-3 205.53-5.8Q207.18-4.5 209.68-3.68 212.18-2.85 214.88-2.85L214.88-2.85Q218.48-2.85 220.21-3.98 221.93-5.1 221.93-7.15L221.93-7.15Q221.93-8.6 220.98-9.43 220.03-10.25 218.58-10.68 217.13-11.1 214.73-11.5L214.73-11.5Q211.53-12.1 209.58-12.73 207.63-13.35 206.26-14.85 204.88-16.35 204.88-19L204.88-19Q204.88-22.3 207.63-24.4 210.38-26.5 215.28-26.5L215.28-26.5Q217.83-26.5 220.38-25.83 222.93-25.15 224.58-24.05L224.58-24.05 223.03-21.2Q219.78-23.45 215.28-23.45L215.28-23.45Q211.88-23.45 210.16-22.25 208.43-21.05 208.43-19.1L208.43-19.1Q208.43-17.6 209.41-16.7 210.38-15.8 211.83-15.38 213.28-14.95 215.83-14.5L215.83-14.5Q218.98-13.9 220.88-13.3 222.78-12.7 224.13-11.25 225.48-9.8 225.48-7.25L225.48-7.25Q225.48-3.8 222.61-1.78 219.73 0.25 214.63 0.25L214.63 0.25Z" opacity="1" transform="matrix(1,0,0,1,0,0)" fill="#ffffff" class="wordmark-text-0" data-fill-palette-color="primary" id="text-0"></path></svg></g></svg></g></svg></g></svg></g><g transform="matrix(1,0,0,1,91.16578991754984,0)"><svg viewBox="0 0 62.099780164900295 54.710332639557464" height="54.710332639557464" width="62.099780164900295"><g><svg xmlns="http://www.w3.org/2000/svg" xmlns:xlink="http://www.w3.org/1999/xlink" version="1.1" x="0" y="0" viewBox="6.3 11.5 87.4 77" style="enable-background:new 0 0 100 100;" xml:space="preserve" height="54.710332639557464" width="62.099780164900295" class="icon-icon-0" data-fill-palette-color="accent" id="icon-0"><path d="M72.3 12.3L71.9 11.5H28.2L6.3 50 28.1 88.5H71.8L93.7 50zM33.3 25.3L9.9 47.7 28.5 14.9zM70.7 14.8L77.1 50.5 36.9 25.8zM35.5 27.3L76.5 52.5 35.5 75.8zM77 54.5L69.8 85.3 37.2 77.2zM33.5 75L9.9 50.5 33.5 27.8zM33.2 77.6L28.6 85.3 11.5 55.1zM35 78.6L66.4 86.5H30.2zM79.3 53.3L90.9 50.8 72.1 84zM90.7 48.9L79.3 51.4 73.4 18.3zM35 24.3L30 13.5H68.2z" fill="#66faa9" data-fill-palette-color="accent"></path></svg></g></svg></g><g></g></svg></g></svg></g><path d="M0 64.49L0 1 244.431 1 244.431 64.49 240.673 64.49 240.673 4.758 3.758 4.758 3.758 64.49 0 64.49M0 182.71L0 246.2 244.431 246.2 244.431 182.71 240.673 182.71 240.673 242.442 3.758 242.442 3.758 182.71 0 182.71" fill="#66faa9" stroke="transparent" data-fill-palette-color="tertiary"></path></svg></g><defs></defs></svg><rect width="244.43135999999998" height="247.2" fill="none" stroke="none" visibility="hidden"></rect></g></svg></g></svg>